<svg xmlns="http://www.w3.org/2000/svg" width="1920" height="1920" viewBox="0 0 1920 1920"><defs><style>.a{fill:#cb2027;}.b{fill:#fff;}</style></defs><rect class="a" width="1920" height="1920"/><path class="a" d="M1507.5437,1526.6357c.9348-6.3645-.2652-10.395-1.4169-14.6461-2.4733-7.7175-6.5305-15.828-11.9079-25.7566-18.8927-34.3817-54.9506-88.646-86.4457-147.3833-30.153-55.9593-55.3828-116.1216-57.6158-162.2019a354.7,354.7,0,0,0,10.97-81.2734c13.949-7.323,30.5134-11.9446,48.9021-14.1811,28.2789-3.366,60.3748-.76,91.8,6.17l25.2313,5.481-15.7732-54.24,46.38-2.064-13.467-44.6553,56.3191-5.5785-25.4716-34.6772,68.5391-23.0521-34.8344-16.7851c-75.4506-36.3737-142.6211-44.9252-199.1556-39.4952a341.8035,341.8035,0,0,0-92.16,22.2181c-25.4951-56.6733-61.865-111.8961-108.6059-161.7848-.2154-.2461-.4073-.4186-.4556-.4921a.5246.5246,0,0,1-.0953-.123,592.8153,592.8153,0,0,0-108.0534-90.7354c4.73.615,9.5313,1.4505,14.4765,2.532,20.7887,4.5465,43.1876,13.0005,64.624,23.6416l23.2385,11.6251-2.6169-57.1893,44.7965,9.0945-2.52-47.2368,55.3344,7.9381-16.6127-40.1567,70.4585-6.1936-28.6878-24.4276c-53.9659-46.0067-107.0438-72.8929-157.5767-85.6234-75.7641-19.1447-145.24-6.0961-202.7337,19.1446C904.84,479.84,858.8436,517.2458,827.7309,547.867c-5.9048,5.8245-11.3057,11.4285-16.0838,16.6635-6.9613.8836-13.779,1.9171-20.55,3.2686-17.1637-45.0483-34.9765-86.558-66.2811-119.9812C699.7533,421.0788,666.12,400.6067,619.98,388.9336c-34.1369-8.601-68.4424-17.0566-100.5148-18.3826-16.0589-.6645-31.6636.4665-46.3789,4.67a92.5336,92.5336,0,0,0-40.1151,23.0267,95.9312,95.9312,0,0,0-24.1031,40.1342c-7.01,22.3636-7.5137,46.9157-5.2572,72.3514,2.3048,25.4851,7.4668,52.0277,12.7958,78.4969,9.6266,48.0707,28.5193,83.5339,53.6788,110.2476a.8242.8242,0,0,0,.2388.27c30.1281,31.95,67.89,51.4142,108.2205,70.0924-2.4719,9.633-4.4646,19.4386-6.12,29.3671-2.9774,2.802-6.0265,5.727-9.2192,8.8726-41.3635,40.8947-95.7133,108.43-118.5665,196.02a320.12,320.12,0,0,0-4.2492,144.6548c10.4427,52.1508,34.5927,107.4231,77.2763,164.4639l22.6612,30.3271,8.9306-71.8369,38.2894,18.5551-5.3041-56.9178,46.02,4.5706-7.083-46.35,55.5748,4.965-10.346-24.2086a327.2872,327.2872,0,0,1-17.4524-51.9528,612.7163,612.7163,0,0,0,71.5619,92.48l.2168.2445.12.075c.0234.024.0234.024.0234.048,47.8456,50.8983,101.6665,90.9815,157.41,119.3917a360.5066,360.5066,0,0,0-21.3411,83.4109c-7.5386,57.6558-1.8974,126.6907,30.6321,205.3826l14.9791,36.2252,25.28-69.0333,32.72,27.3766,7.8507-57.4833,43.091,15.3856,3.84-47.0883,52.31,18.0871-4.3927-25.9756c-5.4976-32.4407-6.7694-65.3974-2.3766-94.127a160.7982,160.7982,0,0,1,11.7863-41.4843c33.9215.2941,66.8584-4.35,97.7308-14.1075,24.1734,4.5225,51.2523,14.6716,78.9086,28.2871,53.51,26.15,108.82,64.4149,152.32,94.79,21.7748,15.2131,40.5956,28.4357,55.3828,37.5032,7.4668,4.5226,13.78,8.0116,19.9256,10.3471a34.3939,34.3939,0,0,0,10.179,2.409,20.663,20.663,0,0,0,6.9378-.738,18.5451,18.5451,0,0,0,7.9694-4.596,20.1581,20.1581,0,0,0,5.5225-10.5436"/><path class="b" d="M1320.844,1167.2638l-93.6018-40.4522c.7692-2.7765,1.537-5.5786,2.21-8.4541,8.3782-35.2412,7.9929-74.0479.2638-113.4426l83.47-33.5222a439.6033,439.6033,0,0,1,14.3314,68.4694c5.6411,44.9747,3.433,88.1795-6.6727,127.4017"/><path class="b" d="M1412.4751,903.5129c42.0829-3.9811,90.6231.2955,145.8139,20.7436l-33.3926,11.2545,18.3169,24.9707-39.3224,3.882,12.8427,42.6407-45.9482,2.0385,12.4838,43.0578c-25.9756-3.9076-52.0933-4.9636-76.8206-2.04a183.2424,183.2424,0,0,0-46.1166,11.3055q-.8264-12.7192-2.4235-25.5106a482.3042,482.3042,0,0,0-28.5442-112.4106,310.4213,310.4213,0,0,1,83.1108-19.9321"/><path class="b" d="M1197.3544,766.1331c48.3233,54.4608,83.9255,114.8211,106.0109,175.5235L1222.1519,974.27c-1.1765-4.179-2.4484-8.307-3.8169-12.46-16.0838-48.5628-42.899-96.61-78.9569-138.56Z"/><path class="b" d="M1176.1335,743.4875,1118.3008,800.48c-42.4184-42.4187-92.4238-74.0974-143.2688-92.75l34.3289-80.0449c58.3118,25.1656,115.6858,64.07,166.7726,115.8021"/><path class="b" d="M1030.3914,464.7185a268.0384,268.0384,0,0,1,127.4487,1.107c36.2981,9.1666,74.5641,26.5172,114.3905,55.1l-35.9377,3.1455,11.9314,28.95-38.65-5.5785,2.4235,45.0242-44.4829-8.9956,2.041,45.3423c-23.9594-9.9766-48.5416-17.0791-72.164-19.3156-15.6282-1.5495-30.8959-.9585-45.2273,2.7765-.4322.123-.8645.27-1.32.369-43.6433-22.34-88.56-37.4537-132.659-45.0977a386.6854,386.6854,0,0,0-60.328-5.6026c39.4177-36.89,99.9625-80.5864,172.5339-97.2245"/><path class="b" d="M913.1216,598.5117A412.4464,412.4464,0,0,1,980.723,616.38l-35.17,82.0835q-7.6705-2.0272-15.3395-3.6856c-34.6176-7.3245-68.73-8.2335-100.298-1.647-2.0176.4425-4.0338.909-6.0748,1.3755l-34.496-94.397c38.4814-8.5515,80.3723-9.018,123.7768-1.5975"/><path class="b" d="M651.8593,639.882c-28.8328,28.3861-50.0054,62.3988-63.8577,99.902C549.784,721.9669,516.8955,704.1978,492.36,678c-21.1726-22.6832-37.1377-51.5853-45.9233-95.1336-7.13-34.9726-13.42-68.8623-13.3717-97.2485-.0249-14.1316,1.56-26.8126,4.9452-37.5767,3.4565-10.79,8.5467-19.6606,16.1556-27.2056,7.6339-7.4716,16.5161-12.3376,27.1757-15.41,15.94-4.596,36.0329-4.644,58.552-1.548,22.4928,3.0225,47.2918,9.0435,72.69,15.5326,41.6272,10.617,69.0666,27.7711,90.1923,50.1587a3.3823,3.3823,0,0,0,.2637.345c25.3749,26.9837,41.7239,62.9884,58.0232,105.3576-40.5943,12.4111-77.7085,33.6452-108.8447,64.2168a1.3452,1.3452,0,0,0-.359.3931"/><path class="a" d="M606.5353,753.8991"/><path class="b" d="M619.8587,742.5905a238.1873,238.1873,0,0,1,53.245-80.1664l.1451-.123a232.9389,232.9389,0,0,1,86.4456-53.6493l34.978,95.675a158.2106,158.2106,0,0,0-48.253,32.3912c-.2168.1965-.24.27-.24.27a162.6517,162.6517,0,0,0-32.6,46.0562Z"/><path class="b" d="M702.5607,812.3919c-.8176,2.8275-1.5605,5.6535-2.2814,8.553-8.6419,36.4217-7.9943,76.58.5275,117.3022l-85.3892,34.2091a437.1237,437.1237,0,0,1-13.8758-66.9933c-5.9063-47.1873-3.2176-92.4065,8.1614-133.2037Z"/><path class="b" d="M628.9358,1160.7808l-44.0771-3.9316,6.9862,45.9078-43.6668-4.275,3.72,39.7877-27.7266-13.3936-4.61,36.6677c-26.2394-41.8037-41.6272-81.5929-49.1409-119.0721-14.116-70.5574-.4322-133.4963,24.2217-186.754,20.2378-43.5243,47.9175-80.24,73.3158-107.9136a409.457,409.457,0,0,0,3.1693,61.6863c6.0733,48.5133,20.5249,98.231,42.9708,146.7443-2.4484,17.3011-1.5121,35.7092,1.6322,54.4113a306.3084,306.3084,0,0,0,13.2047,50.1348"/><path class="b" d="M732.5437,1180.0739c-49.1174-55.0983-85.127-116.2687-107.3809-177.7825l83.4933-33.4487c.8644,2.8995,1.7773,5.7751,2.6887,8.6761,16.5893,50.0612,44.5561,99.533,82.3181,142.4422Z"/><path class="b" d="M824.632,1108.033l-.0967-.0975c-.0484-.05-.12-.147-.2154-.246-51.9747-55.37-85.6076-124.8712-96.0254-189.1871-5.2587-32.1706-4.7546-62.9883,1.7525-90.0964,6.5056-27.0092,18.7007-50.2578,37.0644-68.5174l.0733-.0255.359-.393c18.6055-18.3091,41.8191-29.9582,68.5141-35.5862,40.0184-8.454,87.7439-2.727,135.2042,15.8521s94.5367,49.8648,133.5719,91.3745c.0234.024.0234.0735.0469.123l.145.0735.192.2205c52.045,55.37,85.75,124.9207,96.1923,189.31,5.2573,32.1452,4.7533,62.9883-1.7524,90.071-6.4807,27.1321-18.7959,50.48-37.3531,68.7889l-.0967.123a.3631.3631,0,0,0-.0952.0735c-18.5572,18.3091-41.7957,29.9836-68.5142,35.5861-40.0184,8.4061-87.7439,2.6551-135.2525-15.9735-47.5086-18.5806-94.6568-49.94-133.714-91.4735"/><path class="b" d="M753.813,1202.634l61.191-60.1863c43.1393,42.0992,93.7688,73.1628,144.9743,91.0294l-36.6572,85.673c-59.2-25.0426-117.6067-64.1928-169.5081-116.5161"/><path class="b" d="M1029.5269,1498.56l-41.532-14.3521-3.7451,46.7192-41.1232-14.6715-5.4008,40.1087-23.5507-19.71-12.387,33.7427c-17.7879-57.3124-20.0209-107.2746-14.5-150.2334a331.0871,331.0871,0,0,1,18.8458-74.3929,455.8212,455.8212,0,0,0,104.6907,31.8752c9.8668,1.7205,19.6136,2.9745,29.36,3.933a202.5065,202.5065,0,0,0-9.6031,38.3627c-3.817,25.0922-3.84,51.8553-1.055,78.6185"/><path class="b" d="M1015.9383,1346.6918a403.0563,403.0563,0,0,1-63.906-16.5631l37.6418-87.8855c3.2411.7875,6.4822,1.5735,9.7467,2.286,34.5941,7.3245,68.731,8.283,100.2994,1.6965,3.4081-.7125,6.7928-1.548,10.1306-2.433l36.5619,99.656c-40.2836,10.1011-84.5746,11.1571-130.4744,3.2431"/><path class="a" d="M1164.6578,1348.5923"/><path class="b" d="M1255.6178,1283.0944a231.2819,231.2819,0,0,1-79.87,51.1188l-36.9692-100.8351a158.6288,158.6288,0,0,0,44.58-30.8431l.2154-.222.12-.0975a163.5925,163.5925,0,0,0,32.5531-46.08l95.089,41.0417a239.4714,239.4714,0,0,1-55.4077,85.6475c-.0468,0-.1436.123-.3106.27"/><path class="b" d="M1430.6718,1474.5734c-36.178-25.1656-83.1591-58.5648-132.18-86.3839-26.9822-15.2371-54.5183-28.8767-81.5738-38.5352a259.3622,259.3622,0,0,0,60.0642-44.0163l.3605-.369.0234-.05a266.5968,266.5968,0,0,0,51.8545-72.1549,454.3181,454.3181,0,0,0,18.5572,52.2c24.7023,58.8093,60.5668,117.9652,88.5351,163.8729,11.6661,19.1206,21.9887,36.0287,29.3837,49.2258-9.7951-6.2911-21.75-14.4991-35.0249-23.79"/></svg>